<?xml version="1.0" standalone="no"?>
<!DOCTYPE svg PUBLIC "-//W3C//DTD SVG 20010904//EN"
 "http://www.w3.org/TR/2001/REC-SVG-20010904/DTD/svg10.dtd">
<svg version="1.0" xmlns="http://www.w3.org/2000/svg"
 width="260.000000pt" height="260.000000pt" viewBox="0 0 260.000000 260.000000"
 preserveAspectRatio="xMidYMid meet">
<metadata>
Created by potrace 1.14, written by Peter Selinger 2001-2017
</metadata>
<g transform="translate(0.000000,260.000000) scale(0.100000,-0.100000)"
fill="#000000" stroke="none">
<path d="M0 1300 l0 -1300 1300 0 1300 0 0 1300 0 1300 -1300 0 -1300 0 0
-1300z m1512 1257 l-26 -28 -195 1 -194 2 -84 -223 c-46 -122 -81 -224 -79
-226 2 -3 7 5 11 17 5 15 12 19 26 15 11 -4 19 -2 19 5 0 7 6 8 18 2 9 -4 77
-7 149 -6 73 1 130 -2 128 -6 -3 -4 7 -10 20 -13 14 -2 28 0 32 6 3 5 2 7 -3
4 -6 -3 -15 -2 -22 2 -7 4 11 8 38 8 28 1 48 -2 45 -8 -3 -5 1 -6 9 -3 19 7
205 11 201 4 -2 -3 5 -7 16 -7 10 -1 19 3 19 8 0 6 -4 7 -10 4 -16 -10 -12 1
6 15 8 8 14 9 12 4 -1 -5 3 -18 9 -29 6 -11 66 -157 133 -325 67 -168 124
-307 126 -309 3 -3 2 6 0 20 -2 13 -5 24 -6 24 -1 0 -4 11 -6 25 -3 14 -14 63
-24 110 -43 184 -49 207 -56 248 -3 13 -16 58 -29 100 -13 42 -23 77 -21 79 5
5 586 -1479 586 -1497 0 -3 -28 51 -63 120 -73 145 -140 268 -176 325 -14 22
-26 42 -26 45 0 3 -10 21 -22 40 -12 19 -29 54 -38 78 -10 24 -19 41 -21 39
-2 -2 57 -163 131 -357 74 -195 132 -356 130 -359 -3 -2 -5 1 -5 8 0 7 -4 9
-10 6 -6 -4 -7 1 -3 11 5 13 3 15 -7 9 -9 -5 -11 -4 -6 4 6 9 -22 11 -122 9
-72 -2 -128 0 -125 4 2 5 0 8 -6 8 -5 0 -15 -8 -21 -17 -9 -15 -10 -14 -5 7
l6 25 -22 -25 c-20 -23 -22 -23 -17 -4 3 13 0 21 -8 21 -8 0 -14 -2 -14 -4 0
-1 34 -96 75 -209 72 -196 75 -208 59 -225 -16 -18 -18 -17 -43 31 -101 197
-192 382 -207 423 l-17 47 -481 2 -481 3 480 2 479 3 34 33 33 32 -38 7 c-21
4 -266 7 -545 7 -391 1 -509 -2 -514 -11 -5 -7 -25 -58 -46 -113 -21 -55 -37
-89 -35 -75 l2 25 -142 0 c-95 -1 -139 3 -135 10 3 5 -2 4 -12 -4 -16 -13 -17
-12 -11 15 5 27 -58 -127 -136 -331 -34 -87 -37 -91 -88 -119 -46 -25 -52 -26
-42 -9 5 11 19 51 30 89 49 175 89 288 243 699 381 1010 540 1414 652 1645
l17 35 249 0 249 0 -27 -28z"/>
<path d="M1245 2100 c-3 -6 1 -7 9 -4 18 7 21 14 7 14 -6 0 -13 -4 -16 -10z"/>
<path d="M1156 1882 c-38 -108 -111 -316 -162 -462 -81 -227 -94 -274 -94
-328 0 -108 26 -64 84 141 20 72 70 202 121 317 48 107 106 241 128 297 23 56
43 100 45 98 3 -3 -186 -551 -257 -743 -17 -46 -31 -88 -31 -93 0 -5 124 -9
306 -9 287 0 306 1 299 18 -3 9 -69 190 -145 402 -76 212 -144 399 -151 415
-18 44 -11 76 24 113 l31 32 -65 0 -64 0 -69 -198z"/>
<path d="M1920 1455 c0 -5 5 -17 10 -25 5 -8 10 -10 10 -5 0 6 -5 17 -10 25
-5 8 -10 11 -10 5z"/>
</g>
</svg>
